<svg width="20" height="21" viewBox="0 0 20 21" fill="none" xmlns="http://www.w3.org/2000/svg">
<path d="M10 0.898682C4.47581 0.898682 0 5.24923 0 10.6188C0 15.9884 4.47581 20.339 10 20.339C15.5242 20.339 20 15.9884 20 10.6188C20 5.24923 15.5242 0.898682 10 0.898682ZM12.3024 14.6205L8.74597 12.1082C8.62097 12.0181 8.54839 11.877 8.54839 11.728V5.13165C8.54839 4.87296 8.76613 4.66132 9.03226 4.66132H10.9677C11.2339 4.66132 11.4516 4.87296 11.4516 5.13165V10.5287L14.0121 12.3394C14.2298 12.4923 14.2742 12.7863 14.1169 12.9979L12.9798 14.5186C12.8226 14.7264 12.5202 14.7734 12.3024 14.6205Z" fill="#013A71"/>
</svg>
