<svg width="16" height="16" viewBox="0 0 16 16" fill="none" xmlns="http://www.w3.org/2000/svg">
<path d="M14.2857 0L1.71429 0C0.7675 0 0 0.7675 0 1.71429L0 14.2857C0 15.2325 0.7675 16 1.71429 16L14.2857 16C15.2325 16 16 15.2325 16 14.2857L16 1.71429C16 0.7675 15.2325 0 14.2857 0ZM6.36132 8.218C3.12246 5.86739 3.15546 5.86146 2.28571 5.18454V4.28571C2.28571 3.81232 2.66946 3.42857 3.14286 3.42857L12.8571 3.42857C13.3305 3.42857 13.7143 3.81232 13.7143 4.28571V5.18454C12.8439 5.862 12.8774 5.86754 9.63868 8.21804C9.26368 8.49143 8.51754 9.15089 8 9.14282C7.48204 9.15061 6.73689 8.49186 6.36132 8.218ZM13.7143 6.63482L13.7143 11.7143C13.7143 12.1877 13.3305 12.5714 12.8571 12.5714L3.14286 12.5714C2.66946 12.5714 2.28571 12.1877 2.28571 11.7143L2.28571 6.63482C2.78421 7.02032 3.47604 7.53611 5.68939 9.14247C6.19518 9.51179 7.04564 10.2905 7.99989 10.2857C8.96014 10.2905 9.82264 9.4985 10.3113 9.14193C12.5241 7.53604 13.2158 7.02029 13.7143 6.63482Z" fill="white"/>
</svg>
