<svg width="60" height="42" viewBox="0 0 60 42" fill="none" xmlns="http://www.w3.org/2000/svg">
<path d="M9 18C12.3094 18 15 15.3094 15 12C15 8.69063 12.3094 6 9 6C5.69063 6 3 8.69063 3 12C3 15.3094 5.69063 18 9 18ZM51 18C54.3094 18 57 15.3094 57 12C57 8.69063 54.3094 6 51 6C47.6906 6 45 8.69063 45 12C45 15.3094 47.6906 18 51 18ZM54 21H48C46.35 21 44.8594 21.6656 43.7719 22.7438C47.55 24.8156 50.2313 28.5562 50.8125 33H57C58.6594 33 60 31.6594 60 30V27C60 23.6906 57.3094 21 54 21ZM30 21C35.8031 21 40.5 16.3031 40.5 10.5C40.5 4.69687 35.8031 0 30 0C24.1969 0 19.5 4.69687 19.5 10.5C19.5 16.3031 24.1969 21 30 21ZM37.2 24H36.4219C34.4719 24.9375 32.3063 25.5 30 25.5C27.6937 25.5 25.5375 24.9375 23.5781 24H22.8C16.8375 24 12 28.8375 12 34.8V37.5C12 39.9844 14.0156 42 16.5 42H43.5C45.9844 42 48 39.9844 48 37.5V34.8C48 28.8375 43.1625 24 37.2 24ZM16.2281 22.7438C15.1406 21.6656 13.65 21 12 21H6C2.69063 21 0 23.6906 0 27V30C0 31.6594 1.34062 33 3 33H9.17813C9.76875 28.5562 12.45 24.8156 16.2281 22.7438Z" fill="#013A71"/>
</svg>
