<svg width="60" height="54" viewBox="0 0 60 54" fill="none" xmlns="http://www.w3.org/2000/svg">
<path opacity="0.6" d="M30 0C22.751 0 16.875 5.87604 16.875 13.125C16.875 18.9854 25.4531 29.6667 28.7396 33.5437C29.4052 34.3292 30.5958 34.3292 31.2604 33.5437C34.5469 29.6667 43.125 18.9854 43.125 13.125C43.125 5.87604 37.249 0 30 0ZM30 17.5C27.5833 17.5 25.625 15.5417 25.625 13.125C25.625 10.7083 27.5833 8.75 30 8.75C32.4167 8.75 34.375 10.7083 34.375 13.125C34.375 15.5417 32.4167 17.5 30 17.5ZM2.09583 22.4948C1.47727 22.7422 0.947011 23.1693 0.573447 23.7209C0.199884 24.2725 0.000148147 24.9234 0 25.5896L0 51.6646C0 52.8437 1.19063 53.65 2.28542 53.2125L16.6667 46.6667V22.3875C15.7458 20.7229 14.9927 19.1021 14.4531 17.5521L2.09583 22.4948ZM30 37.4656C28.5344 37.4656 27.1479 36.8219 26.1969 35.699C24.149 33.2823 21.9708 30.5302 20 27.7073V46.6656L40 53.3323V27.7083C38.0292 30.5302 35.8521 33.2833 33.8031 35.7C32.8521 36.8219 31.4656 37.4656 30 37.4656ZM57.7146 16.7875L43.3333 23.3333V53.3333L57.9042 47.5052C58.5228 47.2579 59.0532 46.8309 59.4267 46.2792C59.8003 45.7276 60 45.0767 60 44.4104V18.3354C60 17.1563 58.8094 16.35 57.7146 16.7875Z" fill="#013A71"/>
</svg>
