<svg width="16" height="16" viewBox="0 0 16 16" fill="none" xmlns="http://www.w3.org/2000/svg">
<path d="M13.6837 1.9875C12.181 0.70625 10.1995 0 8.10122 0C3.63601 0 0 3.00625 0 6.7C0 9.04688 2.25012 11.6938 3.21946 12.7219C4.64428 14.2344 6.77762 16 8.10122 16C9.72068 16 12.4964 13.0562 12.8078 12.7187C13.7655 11.6844 16 9.02188 16 6.7C16 4.93437 15.1786 3.25938 13.6837 1.9875ZM8.10122 15.4344C6.44672 15.4344 0.704623 10.2063 0.704623 6.70312C0.704623 3.34687 3.9708 0.56875 8.10122 0.56875C12.0253 0.56875 15.2915 3.35 15.2915 6.70312C15.2954 10.2063 9.55328 15.4344 8.10122 15.4344ZM12.438 6.4625C12.438 8.30937 10.4487 9.89062 8.12457 9.89062C4.20827 9.89062 2.25791 6.50937 4.50803 4.20937V4.22188C4.50803 4.9875 5.29051 5.60937 6.25207 5.60937C7.21363 5.60937 7.99611 4.9875 7.99611 4.22188C7.99611 3.65313 7.56399 3.16563 6.9489 2.95C9.9309 2.35 12.438 4.17813 12.438 6.4625Z" fill="white"/>
</svg>
