<svg width="20" height="21" viewBox="0 0 20 21" fill="none" xmlns="http://www.w3.org/2000/svg">
<path d="M17.1046 3.25469C15.2263 1.69795 12.7494 0.839844 10.1265 0.839844C4.54501 0.839844 0 4.49249 0 8.98046C0 11.832 2.81265 15.048 4.02433 16.2971C5.80535 18.1349 8.47202 20.2801 10.1265 20.2801C12.1509 20.2801 15.6204 16.7034 16.0097 16.2933C17.2068 15.0366 20 11.8016 20 8.98046C20 6.8352 18.9732 4.80004 17.1046 3.25469ZM10.1265 19.5929C8.05839 19.5929 0.880779 13.2406 0.880779 8.98426C0.880779 4.90636 4.9635 1.53088 10.1265 1.53088C15.0316 1.53088 19.1144 4.91015 19.1144 8.98426C19.1192 13.2406 11.9416 19.5929 10.1265 19.5929ZM15.5474 8.69189C15.5474 10.9359 13.0608 12.8571 10.1557 12.8571C5.26034 12.8571 2.82238 8.74885 5.63504 5.95431V5.9695C5.63504 6.89974 6.61314 7.65533 7.81509 7.65533C9.01703 7.65533 9.99513 6.89974 9.99513 5.9695C9.99513 5.27845 9.45499 4.68613 8.68613 4.42415C12.4136 3.69513 15.5474 5.91634 15.5474 8.69189Z" fill="#013A71"/>
</svg>
