<svg width="60" height="60" viewBox="0 0 60 60" fill="none" xmlns="http://www.w3.org/2000/svg">
<path d="M52.3945 13.1217C48.3867 13.1803 45.0938 16.4499 45.0117 20.4577C44.9531 23.3053 46.4766 25.8014 48.7617 27.1139V40.3092C48.7617 47.0241 42.8789 52.4967 35.6367 52.4967C28.6055 52.4967 22.8398 47.3288 22.5234 40.8717C31.0547 39.1139 37.5 31.5436 37.5 22.4967V4.28579C37.5 2.94985 36.5508 1.78969 35.2383 1.53188L27.8672 0.0553194C26.3438 -0.249368 24.8672 0.735007 24.5625 2.25844L24.1875 4.09829C23.8828 5.62173 24.8672 7.09829 26.3906 7.40298L29.9883 8.11782V22.3444C29.9883 28.5436 25.043 33.6764 18.8438 33.735C12.5859 33.7936 7.48828 28.7311 7.48828 22.485V8.12954L11.0859 7.41469C12.6094 7.11001 13.5938 5.63344 13.2891 4.11001L12.9258 2.27016C12.6211 0.746726 11.1445 -0.237649 9.62109 0.0670381L2.26172 1.52016C0.949219 1.78969 0 2.93813 0 4.28579V22.4967C0 31.5553 6.45703 39.1373 15.0117 40.8717C15.3164 51.4655 24.4453 59.9967 35.625 59.9967C46.9922 59.9967 56.25 51.1608 56.25 40.3092V27.1139C58.4883 25.8131 60 23.3991 60 20.6217C60 16.4381 56.5781 13.0631 52.3945 13.1217ZM52.5 22.4967C51.4687 22.4967 50.625 21.653 50.625 20.6217C50.625 19.5905 51.4687 18.7467 52.5 18.7467C53.5313 18.7467 54.375 19.5905 54.375 20.6217C54.375 21.653 53.5313 22.4967 52.5 22.4967Z" fill="#013A71"/>
</svg>
