<svg width="20" height="21" viewBox="0 0 20 21" fill="none" xmlns="http://www.w3.org/2000/svg">
<path d="M17.0045 3.72052C15.1339 1.89777 12.6429 0.895264 9.99554 0.895264C4.53125 0.895264 0.0848214 5.21777 0.0848214 10.5298C0.0848214 12.2267 0.540179 13.8845 1.40625 15.347L0 20.3379L5.25446 18.9969C6.70089 19.765 8.33036 20.1686 9.99107 20.1686H9.99554C15.4554 20.1686 20 15.8461 20 10.5341C20 7.96057 18.875 5.54326 17.0045 3.72052ZM9.99554 18.5455C8.51339 18.5455 7.0625 18.1593 5.79911 17.4302L5.5 17.2566L2.38393 18.0508L3.21429 15.0953L3.01786 14.7915C2.19196 13.5156 1.75893 12.0444 1.75893 10.5298C1.75893 6.11613 5.45536 2.52271 10 2.52271C12.2009 2.52271 14.2679 3.35597 15.8214 4.87058C17.375 6.3852 18.3304 8.39456 18.3259 10.5341C18.3259 14.9521 14.5357 18.5455 9.99554 18.5455ZM14.5134 12.5478C14.2679 12.4263 13.0491 11.8448 12.8214 11.7666C12.5938 11.6842 12.4286 11.6451 12.2634 11.8882C12.0982 12.1312 11.625 12.6693 11.4777 12.8342C11.3348 12.9948 11.1875 13.0165 10.942 12.895C9.48661 12.1876 8.53125 11.6321 7.57143 10.0307C7.31696 9.60538 7.82589 9.63576 8.29911 8.71571C8.37946 8.55513 8.33929 8.41626 8.27679 8.29474C8.21429 8.17323 7.71875 6.98844 7.51339 6.50672C7.3125 6.03801 7.10714 6.10311 6.95536 6.09443C6.8125 6.08575 6.64732 6.08575 6.48214 6.08575C6.31696 6.08575 6.04911 6.14651 5.82143 6.3852C5.59375 6.62823 4.95536 7.20977 4.95536 8.39456C4.95536 9.57934 5.84375 10.7251 5.96429 10.8856C6.08929 11.0462 7.70982 13.4765 10.1964 14.5225C11.7679 15.1821 12.3839 15.2385 13.1696 15.1257C13.6473 15.0563 14.6339 14.5442 14.8393 13.98C15.0446 13.4158 15.0446 12.9341 14.9821 12.8342C14.9241 12.7257 14.7589 12.665 14.5134 12.5478Z" fill="#013A71"/>
</svg>
